<svg xmlns="http://www.w3.org/2000/svg" xmlns:xlink="http://www.w3.org/1999/xlink" version="1.1" x="0px" y="0px" viewBox="0 0 100 125" style="enable-background:new 0 0 100 100;" xml:space="preserve"><path d="M67.3519,63.45707c-0.00244,0-0.00244,0-0.00244,0c-1.42816-0.00245-2.75623-0.64207-3.6473-1.75529  c-0.43211-0.53952-0.34422-1.32563,0.1953-1.75773c0.54197-0.42723,1.32806-0.33934,1.75772,0.1953  c0.41503,0.51999,1.03267,0.81538,1.69427,0.81783c0,0,0,0,0.00244,0c0.66403,0,1.28168-0.29784,1.6967-0.81783  c0.43211-0.53709,1.22553-0.62009,1.75772-0.1953c0.53953,0.43212,0.62497,1.21821,0.1953,1.75773  C70.10812,62.81746,68.77761,63.45707,67.3519,63.45707z M60.38856,47.67158c-0.96646,0-1.74992,0.78347-1.74992,1.74992  s0.78346,1.74993,1.74992,1.74993c0.96646,0,1.74992-0.78346,1.74992-1.74993C62.13848,48.45504,61.355,47.67158,60.38856,47.67158z   M76.06409,49.4215c0,0.96646-0.78346,1.74992-1.74992,1.74992c-0.96646,0-1.74992-0.78346-1.74992-1.74992  s0.78346-1.74992,1.74992-1.74992C75.28063,47.67157,76.06409,48.45506,76.06409,49.4215z M32.3364,61.70179  c0.43211-0.53952,0.34422-1.32563-0.19408-1.75772c-0.53831-0.42723-1.32563-0.33934-1.7565,0.1953  c-0.83004,1.03999-2.56215,1.04244-3.39706,0c-0.42966-0.53709-1.21698-0.62254-1.7565-0.1953  c-0.53831,0.43211-0.62619,1.2182-0.19408,1.75772c0.89229,1.11568,2.2228,1.75529,3.64852,1.75529  C30.1136,63.45707,31.44411,62.81746,32.3364,61.70179z M21.72432,47.67158c-0.96646,0-1.74992,0.78347-1.74992,1.74992  s0.78346,1.74993,1.74992,1.74993s1.74993-0.78346,1.74993-1.74993C23.47425,48.45504,22.69078,47.67158,21.72432,47.67158z   M37.39987,49.4215c0,0.96646-0.78347,1.74992-1.74992,1.74992s-1.74992-0.78346-1.74992-1.74992s0.78347-1.74992,1.74992-1.74992  C36.61641,47.67158,37.39987,48.45506,37.39987,49.4215z M93.50542,77.44877c-0.83561,0.87045-1.91601,1.40224-3.08823,1.56934  c0.39111,1.79926,0.59924,3.75381,0.59924,5.88351c0,0.7031-0.54836,1.25145-1.25145,1.25145  c-0.67503,0-1.23744-0.54835-1.23744-1.25145c0-6.51418-2.02132-11.21661-6.12116-14.16864  c-2.39346,5.57034-7.7791,8.72669-15.05601,8.72669c-7.27391,0-12.67533-3.15284-15.06579-8.72447  c-1.04889,0.75424-1.97428,1.61199-2.751,2.59583c1.87103,3.07149,2.84086,6.91705,2.84086,11.58457  c0,0.6891-0.56251,1.25152-1.25153,1.25152S49.8714,85.6047,49.8714,84.9156c0-8.90359-3.74892-14.422-11.42398-16.7261  c0.21706,0.94263,0.31516,1.95162,0.31516,3.04394c0,1.53279-0.19689,2.88268-0.60464,4.13419  c-0.29533,0.91406-0.91406,1.63123-1.7156,1.98277c-0.26374,0.11157-0.53539,0.17157-0.80849,0.20469l-1.86321,7.65584  c-0.16874,0.67494-0.84377,1.08279-1.50463,0.91406c-0.67503-0.15474-1.0828-0.82969-0.92813-1.50463l1.89617-7.76569  c-0.76068-0.44167-1.56368-1.01601-2.37088-1.68985c-0.64834,0.36073-1.38327,0.58414-2.17648,0.58414  c-0.79296,0-1.52764-0.22323-2.17579-0.58371c-0.80651,0.67306-1.60857,1.24706-2.36865,1.68855l1.90837,7.76655  c0.16882,0.67495-0.23903,1.34989-0.91396,1.50464c-0.09844,0.02806-0.19689,0.04213-0.29533,0.04213  c-0.56243,0-1.0827-0.3796-1.22338-0.95619l-1.87505-7.65558c-0.27387-0.03304-0.54629-0.09312-0.81072-0.20495  c-0.80153-0.35155-1.42026-1.0828-1.7156-1.98277c-0.40777-1.25152-0.60464-2.60141-0.60464-4.13419  c0-1.09686,0.10925-2.10061,0.31961-3.04711C11.25767,70.49308,7.50309,76.02051,7.50309,84.9156  c0,0.6891-0.56251,1.25152-1.25152,1.25152S5,85.60471,5,84.91562c0-9.54799,3.95138-15.79146,11.7557-18.63198  c-3.07423-2.74492-5.24565-6.51649-6.0586-10.75282c-2.57806-0.83337-4.31374-2.84421-4.71275-5.60107  c-0.33747-2.26402-0.01408-4.10612,0.92804-5.35756c0.09518-0.12763,0.19354-0.2283,0.29405-0.31601  c-1.08828-5.25088-0.99344-9.39341,0.32469-12.635c1.22338-2.99518,3.52955-5.16068,6.84813-6.46851  c1.7156-1.40619,3.5014-2.44675,5.47009-3.16392c4.02168-1.43425,6.46843-1.81395,10.89795-1.65929  c6.06066,0.18281,8.60586-0.30932,9.9699-0.56243c1.12493-0.22504,1.94054-0.3797,2.96703,0.46398  c1.43433,1.11094,0.94212,3.67021,0.28125,5.37165c2.1322,1.00658,3.77587,2.43405,4.91616,4.26731  c0.62997-0.64491,1.28578-1.24389,2.00225-1.75018c2.07041-2.43714,4.8148-4.30945,7.94139-5.50957  c-0.00215-0.08103-0.01048-0.16007-0.01048-0.24178c0-4.7107,3.82479-8.53557,8.52149-8.53557  c4.7107,0,8.53558,3.82487,8.53558,8.53557c0,0.07862-0.00816,0.15621-0.01012,0.23473  c3.11852,1.19814,5.86077,3.06908,7.92697,5.50253c0,0,0.01399,0,0.01399,0.01408  c5.28727,3.78264,8.43712,11.09475,9.88553,24.70672c0.47806,4.42943,1.01241,12.76812,1.30774,20.74126  C95.05219,75.03016,94.51784,76.4082,93.50542,77.44877z M85.68703,52.60145c1.02649-0.66087,1.68744-1.70144,1.88423-3.03733  c0.22504-1.56094,0.07038-2.7983-0.4499-3.4874c-0.26717-0.35155-0.60474-0.54834-1.05465-0.61872  c-0.12659-0.01399-0.2532-0.01399-0.3797,0.01408C85.68701,45.47208,85.68701,52.60145,85.68703,52.60145z M61.37365,21.81382  c1.91402-0.47402,3.92391-0.73133,6.00478-0.68283c2.05247-0.04823,4.0391,0.20641,5.93373,0.67503  c-0.28761-3.06453-2.83588-5.47009-5.97586-5.47009C64.20679,16.33593,61.65757,18.74559,61.37365,21.81382z M50.38052,33.64214  c0.62834,2.69823,0.58971,5.91957-0.1,9.62239c0.01322,0.00636,0.02772,0.00738,0.04085,0.0139  c3.13585-1.4624,7.97314-5.3997,9.22458-8.97148c0.16874-0.46398,0.59066-0.78746,1.06872-0.8296  c0.04223,0,0.08438-0.01408,0.11251-0.01408c0.45,0,0.85775,0.23903,1.08279,0.6328  c3.89509,6.76375,16.67736,9.19644,22.28804,9.30895c0.35155-0.18281,0.7031-0.3094,1.05464-0.3797  c0.60464-3.33266,0.32339-6.53873-0.81561-9.30895c-0.57649-1.4062-1.37803-2.71394-2.37646-3.8811  c-1.87017-2.24986-4.41536-3.99352-7.3121-5.06223c-2.24995-0.82969-4.72485-1.23744-7.27005-1.13901  c-2.58734-0.08436-5.06224,0.32339-7.32618,1.13901c-2.91082,1.05465-5.45601,2.81237-7.32627,5.06223  C51.74919,30.97721,50.96723,32.2574,50.38052,33.64214z M60.92409,37.17562c-2.17288,3.59554-6.41136,6.84641-9.42147,8.28959  v7.13624c0,1.15308,0.1265,2.27801,0.36562,3.36081c1.5327,7.1153,7.88868,12.47288,15.46806,12.47288  c7.59336,0,13.94936-5.35757,15.48214-12.47287c0.23904-1.0828,0.36555-2.20772,0.36555-3.36081v-6.73501  C77.87267,45.5852,66.31153,43.625,60.92409,37.17562z M48.46521,46.07674c-0.12188-0.16033-0.37653-0.35455-0.56199-0.45016  c-0.14926-0.07699-0.30666-0.13947-0.49265-0.16857c-0.13604-0.01698-0.26556-0.00025-0.3937,0.02155v7.12191  c0,0.00636-0.00086,0.01245-0.00086,0.0188c1.0343-0.67305,1.70315-1.71516,1.89919-3.05612  C49.14023,48.0032,48.98557,46.76584,48.46521,46.07674z M10.37044,52.62661c-0.00987-0.25311-0.04102-0.50106-0.04102-0.75639  v-6.37959c-0.12427-0.01974-0.24958-0.03493-0.37962-0.01854c-0.19714,0.02489-0.39215,0.09896-0.60619,0.21191  c-0.16246,0.10007-0.30794,0.22631-0.43438,0.39274c-0.52037,0.6891-0.67503,1.92646-0.44999,3.4874  C8.65528,50.90535,9.33177,51.9551,10.37044,52.62661z M11.60026,43.28522c0.9695-0.56114,3.77346-2.63738,4.05866-5.99715  c0.04214-0.42183,0.29524-0.80145,0.67494-0.99834c0.39378-0.19689,0.84368-0.18281,1.2093,0.04214  c2.50305,1.49055,19.79914,1.49055,22.28812,0c0.37962-0.22496,0.8296-0.23903,1.22338-0.04214  c0.37962,0.19689,0.6328,0.57649,0.67495,1.01242c0.24538,3.27558,3.01466,5.37182,4.0445,5.97527  c0.64731-0.27395,1.32268-0.38039,1.95995-0.29422c0.02807,0,0.05622,0.01399,0.0703,0.01399  c0.82969-4.28885,0.71717-7.79025-0.33747-10.44796c-0.99842-2.43267-2.84053-4.10604-5.62475-5.11846  c-0.36562-0.14067-0.66095-0.43591-0.77338-0.80153c-0.11251-0.3797-0.0563-0.77347,0.16874-1.09686  c0.54836-0.77338,1.05465-2.93888,0.80154-3.44517c-0.11251,0-0.50629,0.07038-0.85784,0.12659  c-1.4624,0.28125-4.17633,0.81561-10.51826,0.60464c-4.51389-0.14058-6.63716,0.33747-9.9699,1.51871  c-1.74365,0.64679-3.33266,1.57492-4.86536,2.8686c-0.11251,0.09844-0.23903,0.16874-0.36562,0.21096  c-2.7983,1.05465-4.62632,2.72801-5.61067,5.14661c-1.06872,2.61548-1.18124,6.04659-0.35155,10.43388  c0.04215,0,0.08436,0,0.12651-0.01399C10.26075,42.89625,10.9448,43.00516,11.60026,43.28522z M24.1739,71.23499  c0-0.78223,0.21808-1.50746,0.5699-2.14954c-0.90419-0.73614-1.79009-1.32301-2.56022-1.6768  c-0.39369,0.07028-0.52028,0.23904-0.59057,0.46398c-0.14058,0.44998-0.25311,0.91405-0.33747,1.40618  c-0.09844,0.60473-0.14058,1.25153-0.14058,1.95461c0,1.26559,0.15466,2.36239,0.47805,3.36082  c0.07029,0.23903,0.19689,0.40777,0.35155,0.46406c0.88926-0.35566,1.84836-0.94615,2.79074-1.68769  C24.3888,72.73188,24.1739,72.01171,24.1739,71.23499z M30.69947,71.23499c0-1.10828-0.90325-2.01162-2.01281-2.01162  c-1.10957,0-2.01281,0.90332-2.01281,2.01162c0,1.11085,0.90323,2.0141,2.01281,2.0141  C29.79624,73.24908,30.69947,72.34583,30.69947,71.23499z M36.25952,71.23344c0-0.66087-0.04214-1.27959-0.12651-1.87025  c-0.08437-0.52029-0.19689-1.01241-0.35155-1.49055c-0.0703-0.22496-0.19689-0.3937-0.35155-0.46398  c-0.88934,0.35567-1.84863,0.95379-2.79118,1.6937c0.34605,0.63802,0.56071,1.35725,0.56071,2.13262  c0,0.78196-0.21749,1.50668-0.56835,2.14841c0.89999,0.73502,1.77996,1.3214,2.5597,1.67492  c0.39378-0.0563,0.52037-0.22504,0.59065-0.46407C36.10486,73.59583,36.25952,72.49903,36.25952,71.23344z M39.70469,63.97755  c3.1077-3.00926,4.82321-7.04501,4.82321-11.37609v-7.17152c-1.54678-0.88591-4.16226-3.05149-5.03409-6.356  c-4.87952,1.22338-16.73366,1.22338-21.61318,0c-0.88583,3.33266-3.50139,5.48417-5.04816,6.356v6.44027  c0,5.54039,2.68578,10.51834,6.77783,13.54158c0.02807,0.02815,0.32339,0.23912,0.43591,0.32349  c0.25311-0.25311,0.56243-0.46407,0.88591-0.61872c0.74523-0.32348,1.56085-0.3094,2.29209,0.01408  c1.0119,0.45695,2.14979,1.222,3.29051,2.17443c0.64723-0.3591,1.38053-0.58157,2.17194-0.58157  c0.79166,0,1.52523,0.22255,2.17263,0.5819c1.14089-0.95259,2.27895-1.71774,3.29095-2.17477  c0.73125-0.32348,1.54686-0.33755,2.29209-0.01408c0.36562,0.15466,0.68902,0.39369,0.97027,0.70309  c0.12659-0.08436,0.47814-0.32348,0.52029-0.36561C38.55161,65.01812,39.14226,64.51192,39.70469,63.97755z M55.22406,66.34655  c-3.12222-2.75573-5.30865-6.55125-5.99947-10.84834c-0.43729-0.14797-0.84178-0.33266-1.22269-0.54662  c-0.38116,0.2149-0.78875,0.39857-1.22338,0.54576c-0.52499,3.32759-1.93968,6.42414-4.14114,9.00358  c-0.04798,0.84479-0.09304,1.70109-0.1363,2.57172c2.20901,1.0531,4.01687,2.45455,5.48674,4.14724  C49.81741,69.09377,52.23155,67.46745,55.22406,66.34655z M80.2426,69.44205c-0.9985-0.49857-2.07959-0.92839-3.26176-1.27486  c-2.80518,1.74331-6.10023,2.771-9.64455,2.771c-3.54816,0-6.85567-1.02151-9.66435-2.77238  c-1.16235,0.34373-2.23433,0.76171-3.21937,1.25188c-0.00301,0.00609-0.00807,0.0097-0.01107,0.01588  c2.57334,6.52465,9.11215,7.53715,12.90887,7.53715C71.12556,76.9707,77.65868,75.96018,80.2426,69.44205z M92.49292,73.66612  c-0.29524-7.93083-0.81552-16.19921-1.29366-20.57244c-0.7031-6.63725-1.81396-11.61512-3.33266-15.32748  c0.18762,1.79395,0.09544,3.67776-0.24504,5.59067c0.58036,0.27644,1.093,0.67442,1.49656,1.21531  c0.94212,1.25143,1.25152,3.09354,0.92804,5.35757c-0.37962,2.71393-2.06706,4.71068-4.58418,5.56844  c-0.69082,4.29666-2.8782,8.09013-6.0017,10.84577c5.13922,1.92973,8.57977,5.34641,10.28901,10.23871  c0.74215-0.02163,1.4413-0.32142,1.95616-0.86349C92.23981,75.17074,92.52107,74.43959,92.49292,73.66612z"/></svg>