<svg xmlns="http://www.w3.org/2000/svg" xmlns:xlink="http://www.w3.org/1999/xlink" version="1.1" x="0px" y="0px" viewBox="0 0 100 125" enable-background="new 0 0 100 100" xml:space="preserve"><path d="M66.267,32.166c-3.659,0-7.174,0.622-10.455,1.75c-5.373-6.846-13.193-10.98-21.803-11.561L44.597,9.994  c0,0,0.001,0,0.001,0c0,0,0-0.001,0-0.001l0.006-0.007c0.031-0.037,0.042-0.081,0.067-0.121c0.038-0.059,0.078-0.114,0.103-0.181  c0.005-0.014,0.016-0.027,0.021-0.042c0.018-0.055,0.013-0.112,0.021-0.168c0.007-0.047,0.028-0.09,0.028-0.139  c0-0.012-0.006-0.021-0.006-0.032c0-0.014,0.003-0.027,0.002-0.04c-0.004-0.059-0.03-0.113-0.045-0.17c0-0.001,0-0.002-0.001-0.004  c-0.015-0.056-0.02-0.114-0.043-0.165c-0.005-0.01-0.006-0.021-0.011-0.031c-0.021-0.043-0.062-0.077-0.089-0.118  c-0.041-0.059-0.076-0.118-0.128-0.167c-0.009-0.008-0.012-0.019-0.021-0.026l-5.681-4.968c0,0-0.001-0.001-0.001-0.001l0,0  c-0.038-0.033-0.084-0.045-0.125-0.072c-0.06-0.039-0.116-0.079-0.183-0.105c-0.069-0.026-0.14-0.032-0.211-0.042  c-0.047-0.007-0.089-0.028-0.138-0.028H25.645c-0.049,0-0.09,0.021-0.137,0.028c-0.073,0.01-0.144,0.017-0.213,0.043  c-0.067,0.025-0.123,0.065-0.182,0.104c-0.042,0.026-0.088,0.039-0.126,0.072l0,0c0,0,0,0,0,0l-5.682,4.969  c-0.009,0.008-0.012,0.019-0.021,0.026c-0.052,0.049-0.087,0.108-0.128,0.167c-0.028,0.041-0.068,0.074-0.089,0.118  c-0.005,0.01-0.006,0.021-0.011,0.031c-0.023,0.051-0.029,0.109-0.043,0.165c0,0.001-0.001,0.003-0.001,0.004  c-0.015,0.057-0.041,0.111-0.045,0.17c-0.001,0.013,0.003,0.026,0.002,0.04c0,0.011-0.006,0.021-0.006,0.032  c0,0.049,0.021,0.092,0.028,0.139c0.008,0.057,0.003,0.114,0.021,0.168c0.005,0.015,0.016,0.027,0.021,0.042  c0.025,0.067,0.065,0.122,0.103,0.181c0.025,0.04,0.036,0.084,0.067,0.121l0.006,0.007c0,0,0,0,0,0.001c0,0,0,0,0.001,0L29.8,22.358  C14.014,23.443,1.5,36.624,1.5,52.682c0,16.764,13.639,30.402,30.403,30.402c2.577,0,5.08-0.325,7.471-0.932  c5.997,9.076,15.988,14.482,26.892,14.482c17.773,0,32.233-14.461,32.233-32.235C98.5,46.625,84.04,32.166,66.267,32.166z   M35.133,10.335l-3.23,9.759l-3.229-9.759H35.133z M29.582,8.335l2.321-2.5l2.322,2.5H29.582z M37.24,10.335h4.432l-7.223,8.432  L37.24,10.335z M37.901,8.335l0.736-2.225l2.544,2.225H37.901z M36.1,7.415l-1.903-2.049h2.582L36.1,7.415z M27.707,7.415  l-0.679-2.05h2.582L27.707,7.415z M25.169,6.11l0.736,2.225h-3.281L25.169,6.11z M26.567,10.335l2.791,8.433l-7.223-8.433H26.567z   M3.5,52.682c0-15.662,12.74-28.403,28.4-28.405c0.001,0,0.001,0,0.002,0s0.002,0,0.002,0c8.601,0,16.522,3.771,21.942,10.38  c-1.156,0.485-2.275,1.039-3.359,1.65c-4.711-5.346-11.435-8.403-18.585-8.403c-13.662,0-24.777,11.116-24.777,24.778  c0,13.663,11.115,24.778,24.777,24.778c4.049,0,7.871-0.982,11.249-2.712c0.014-0.005,0.027-0.002,0.041-0.008  c0.036-0.015,0.061-0.044,0.094-0.062c7.948-4.131,13.393-12.438,13.393-21.997c0-3.349-0.658-6.578-1.943-9.62  c1.058-0.574,2.164-1.07,3.31-1.483c1.495,3.512,2.263,7.241,2.263,11.103c0,15.661-12.743,28.402-28.405,28.402  C16.242,81.084,3.5,68.343,3.5,52.682z M48.753,37.359c-8.851,5.752-14.721,15.721-14.721,27.04c0,3.682,0.618,7.277,1.828,10.71  c-1.286,0.226-2.606,0.351-3.956,0.351c-12.56,0-22.777-10.219-22.777-22.778c0-12.56,10.218-22.778,22.777-22.778  C38.356,29.903,44.435,32.609,48.753,37.359z M42.007,64.399c0-8.485,4.383-15.962,11-20.298c1.108,2.718,1.672,5.598,1.672,8.581  c0,8.38-4.552,15.713-11.31,19.669C42.483,69.8,42.007,67.135,42.007,64.399z M59.964,40.978c2.011-0.542,4.123-0.835,6.303-0.835  c13.375,0,24.257,10.881,24.257,24.257S79.642,88.657,66.267,88.657c-7.594,0-14.726-3.565-19.305-9.58  c9.159-5.245,15.347-15.108,15.347-26.396C62.309,48.615,61.515,44.685,59.964,40.978z M66.267,94.635  c-10.022,0-19.221-4.868-24.88-13.073c1.304-0.429,2.572-0.939,3.792-1.534c4.948,6.667,12.76,10.63,21.088,10.63  c14.479,0,26.257-11.779,26.257-26.258S80.745,38.142,66.267,38.142c-2.784,0-5.467,0.439-7.987,1.246  c-0.036,0.012-0.073,0.009-0.108,0.026c-0.011,0.005-0.017,0.015-0.027,0.02c-1.784,0.582-3.484,1.351-5.079,2.282  c-0.01,0.004-0.021,0.003-0.03,0.007c-0.024,0.011-0.039,0.033-0.062,0.045c-7.75,4.57-12.965,13-12.965,22.63  c0,3.064,0.526,6.054,1.555,8.904c-1.192,0.561-2.439,1.021-3.733,1.369c-1.188-3.287-1.798-6.737-1.798-10.273  c0-16.671,13.563-30.234,30.235-30.234c16.671,0,30.233,13.563,30.233,30.234C96.5,81.071,82.938,94.635,66.267,94.635z"/></svg>